<svg xmlns="http://www.w3.org/2000/svg" version="1.1" xmlns:xlink="http://www.w3.org/1999/xlink" xmlns:svgjs="http://svgjs.dev/svgjs" width="2000" height="1247" viewBox="0 0 2000 1247"><g transform="matrix(1,0,0,1,-1.2121212121212466,0.504858299595071)"><svg viewBox="0 0 396 247" data-background-color="#ffffff" preserveAspectRatio="xMidYMid meet" height="1247" width="2000" xmlns="http://www.w3.org/2000/svg" xmlns:xlink="http://www.w3.org/1999/xlink"><g id="tight-bounds" transform="matrix(1,0,0,1,0.2400000000000091,-0.09999999999999432)"><svg viewBox="0 0 395.52 247.2" height="247.2" width="395.52"><g><svg></svg></g><g><svg viewBox="0 0 395.52 247.2" height="247.2" width="395.52"><g transform="matrix(1,0,0,1,39.55199999999999,97.94201192189105)"><svg viewBox="0 0 316.416 51.31597615621788" height="51.31597615621788" width="316.416"><g><svg viewBox="0 0 316.416 51.31597615621788" height="51.31597615621788" width="316.416"><g><svg viewBox="0 0 316.416 51.31597615621788" height="51.31597615621788" width="316.416"><g id="textblocktransform"><svg viewBox="0 0 316.416 51.31597615621788" height="51.31597615621788" width="316.416" id="textblock"><g><svg viewBox="0 0 316.416 51.31597615621788" height="51.31597615621788" width="316.416"><g transform="matrix(1,0,0,1,0,0)"><svg width="316.416" viewBox="3.15 -38.6 243.23999999999998 39.45" height="51.31597615621788" data-palette-color="#21a55d"><path d="M16.1 0.85Q8.85 0.85 3.15-1.85L3.15-1.85 3.15-6.45Q8.9-3.4 16.1-3.4L16.1-3.4Q20.25-3.4 22.18-5.15 24.1-6.9 24.1-9.75L24.1-9.75Q24.1-12.45 22.33-13.8 20.55-15.15 17.1-16.15L17.1-16.15 13.7-17.1Q10.8-17.95 8.75-19.05 6.7-20.15 5.33-22.23 3.95-24.3 3.95-27.65L3.95-27.65Q3.95-33 7.08-35.8 10.2-38.6 15.95-38.6L15.95-38.6Q19.3-38.6 21.85-37.98 24.4-37.35 27.15-36.1L27.15-36.1 27.15-31.6Q22.05-34.35 15.95-34.35L15.95-34.35Q12.25-34.35 10.55-32.63 8.85-30.9 8.85-27.9L8.85-27.9Q8.9-25.15 10.53-23.85 12.15-22.55 15.6-21.55L15.6-21.55 19.05-20.6Q22.1-19.75 24.23-18.63 26.35-17.5 27.68-15.38 29-13.25 29-9.85L29-9.85Q28.95-4.9 25.53-2.02 22.1 0.85 16.1 0.85L16.1 0.85ZM53.05 0.85Q47.2 0.85 43.12-1.73 39.05-4.3 37-8.78 34.95-13.25 34.95-18.9L34.95-18.9Q34.95-24.45 37-28.9 39.05-33.35 43.12-35.98 47.2-38.6 53.05-38.6L53.05-38.6Q58.85-38.6 62.9-35.98 66.95-33.35 69.02-28.88 71.1-24.4 71.1-18.9L71.1-18.9Q71.1-13.25 69.05-8.78 67-4.3 62.92-1.73 58.85 0.85 53.05 0.85L53.05 0.85ZM53.05-3.4Q57.15-3.4 60.1-5.45 63.05-7.5 64.57-11.05 66.1-14.6 66.1-19.05L66.1-19.05Q66.1-23.35 64.55-26.83 63-30.3 60.05-32.33 57.1-34.35 53.05-34.35L53.05-34.35Q48.85-34.35 45.9-32.3 42.95-30.25 41.45-26.75 39.95-23.25 39.95-18.9L39.95-18.9Q39.95-14.45 41.45-10.95 42.95-7.45 45.9-5.43 48.85-3.4 53.05-3.4L53.05-3.4ZM103.25-37.9L108.09-37.9 108.09 0 102.8 0 84.15-29.75 84.15 0 79.3 0 79.3-37.9 84.55-37.9 103.25-8.15 103.25-37.9ZM128.94-23.15L147.84-23.15 147.84-2.65Q144.89-0.95 141.37-0.05 137.84 0.85 134.79 0.85L134.79 0.85Q128.79 0.85 124.62-1.63 120.44-4.1 118.34-8.55 116.24-13 116.24-18.9L116.24-18.9Q116.24-24.5 118.27-28.95 120.29-33.4 124.47-36 128.64-38.6 134.79-38.6L134.79-38.6Q138.09-38.6 140.37-37.98 142.64-37.35 145.49-36.1L145.49-36.1 145.49-31.5Q142.94-32.9 140.47-33.63 137.99-34.35 134.79-34.35L134.79-34.35Q130.54-34.35 127.49-32.4 124.44-30.45 122.84-26.98 121.24-23.5 121.24-19.05L121.24-19.05Q121.24-14.4 122.82-10.88 124.39-7.35 127.44-5.38 130.49-3.4 134.79-3.4L134.79-3.4Q136.94-3.4 138.89-3.9 140.84-4.4 143.04-5.3L143.04-5.3 143.04-18.8 128.94-18.8 128.94-23.15ZM168.14 0.85Q160.89 0.85 155.19-1.85L155.19-1.85 155.19-6.45Q160.94-3.4 168.14-3.4L168.14-3.4Q172.29-3.4 174.22-5.15 176.14-6.9 176.14-9.75L176.14-9.75Q176.14-12.45 174.37-13.8 172.59-15.15 169.14-16.15L169.14-16.15 165.74-17.1Q162.84-17.95 160.79-19.05 158.74-20.15 157.37-22.23 155.99-24.3 155.99-27.65L155.99-27.65Q155.99-33 159.12-35.8 162.24-38.6 167.99-38.6L167.99-38.6Q171.34-38.6 173.89-37.98 176.44-37.35 179.19-36.1L179.19-36.1 179.19-31.6Q174.09-34.35 167.99-34.35L167.99-34.35Q164.29-34.35 162.59-32.63 160.89-30.9 160.89-27.9L160.89-27.9Q160.94-25.15 162.57-23.85 164.19-22.55 167.64-21.55L167.64-21.55 171.09-20.6Q174.14-19.75 176.27-18.63 178.39-17.5 179.72-15.38 181.04-13.25 181.04-9.85L181.04-9.85Q180.99-4.9 177.57-2.02 174.14 0.85 168.14 0.85L168.14 0.85ZM194.39-4.35L210.24-4.35 210.24 0 189.54 0 189.54-37.9 194.39-37.9 194.39-4.35ZM246.39-37.9L232.44-14.65 232.44 0 227.64 0 227.64-14.65 213.74-37.9 218.74-37.9 230.04-18.75 241.39-37.9 246.39-37.9Z" opacity="1" transform="matrix(1,0,0,1,0,0)" fill="#21a55d" class="undefined-text-0" data-fill-palette-color="primary" id="text-0"></path></svg></g></svg></g></svg></g></svg></g></svg></g></svg></g><g mask="url(#90788eb7-8709-4910-a09d-65beb6685894)"><g transform="matrix(2.7244444444444444, 0, 0, 2.7244444444444444, 116.5951995113175, 1)"><svg xmlns="http://www.w3.org/2000/svg" xmlns:xlink="http://www.w3.org/1999/xlink" version="1.1" x="0" y="0" viewBox="24.761855407245655 5 59.58264309935908 90" enable-background="new 0 0 100 100" xml:space="preserve" width="59.58264309935908" height="90" class="icon-none" data-fill-palette-color="accent" id="none"><g fill="#ff0e37" data-fill-palette-color="accent"><path d="M73.76 35.603C86.875 48 91.5 66.25 65.633 82.379c3.64-4.928 5.654-9.794 6.096-14.669 0.951-10.516-5.606-19.072-12.835-26.752C48.298 29.7 47.51 18.84 56.413 6.782 54.578 22.641 64.6 26.944 73.76 35.603zM45.288 93.716c6.184-13.053 7.276-20.302-8.197-34.939-4.204-3.977-7.451-8.029-9.71-12.086-2.881 6.435-5.164 20.081 3.244 27.935C36.312 79.938 44.125 83.125 45.288 93.716zM56.709 43.014C48.183 33.954 41.999 21.253 54 5 21.497 17.692 19.625 38.125 39.151 56.597 55.603 72.158 54.75 80.75 48 95 79.875 71.5 68.709 55.764 56.709 43.014z" fill="#ff0e37" data-fill-palette-color="accent"></path></g></svg></g></g></svg></g><defs><mask id="90788eb7-8709-4910-a09d-65beb6685894"><rect width="640" height="400" fill="white"></rect><rect width="348.05760000000004" height="75.54491693032847" fill="black" x="145.97119999999998" y="162.22754153483578" id="transform-me" transform="matrix(1,0,0,1,-122.24000000000001,-76.4)"></rect></mask></defs></svg><rect width="395.52" height="247.2" fill="none" stroke="none" visibility="hidden"></rect></g></svg></g></svg>